<svg xmlns="http://www.w3.org/2000/svg" width="24.283" height="24.287" viewBox="0 0 24.283 24.287">
  <g id="Group_2281" data-name="Group 2281" transform="translate(0.15 0.15)">
    <path id="Path_6050" data-name="Path 6050" d="M66.636,4.756a.21.21,0,0,0-.21.21V15.634a.21.21,0,0,0,.21.21H77.3a.21.21,0,0,0,.21-.21A10.89,10.89,0,0,0,66.636,4.756Zm.21,10.668V5.178A10.47,10.47,0,0,1,77.092,15.424Z" transform="translate(-53.532 -4.756)" fill="#95989d" stroke="#95989d" stroke-width="0.3"/>
    <path id="Path_6052" data-name="Path 6052" d="M24.091,60.651a.21.21,0,1,0,0-.42H22.967a.21.21,0,1,0,0,.42Z" transform="translate(-18.989 -48.609)" fill="#95989d" stroke="#95989d" stroke-width="0.3"/>
    <path id="Path_6053" data-name="Path 6053" d="M15.648,9.425A10.891,10.891,0,0,0,4.768,20.3a.21.21,0,0,0,.21.21H7.644a.21.21,0,1,0,0-.42H5.19A10.471,10.471,0,0,1,15.438,9.847V20.093H10.92a.21.21,0,1,0,0,.42h4.728a.21.21,0,0,0,.21-.21V9.635a.21.21,0,0,0-.21-.21Z" transform="translate(-4.768 -8.445)" fill="#95989d" stroke="#95989d" stroke-width="0.3"/>
    <path id="Path_6054" data-name="Path 6054" d="M15.648,66.426H4.978a.21.21,0,0,0-.21.21,10.892,10.892,0,0,0,10.88,10.88.21.21,0,0,0,.21-.21V66.636A.21.21,0,0,0,15.648,66.426Zm-.21,10.668A10.472,10.472,0,0,1,5.19,66.846H15.438Z" transform="translate(-4.768 -53.529)" fill="#95989d" stroke="#95989d" stroke-width="0.3"/>
    <path id="Path_6055" data-name="Path 6055" d="M73.174,66.426H62.506a.21.21,0,0,0-.21.21v10.67a.21.21,0,0,0,.21.21,10.891,10.891,0,0,0,10.878-10.88A.21.21,0,0,0,73.174,66.426ZM62.716,77.094V66.846H72.962A10.472,10.472,0,0,1,62.716,77.094Z" transform="translate(-50.269 -53.529)" fill="#95989d" stroke="#95989d" stroke-width="0.3"/>
  </g>
</svg>
